# xmcd
#
# Track frame offsets: 
#        150
#        19542
#        39672
#        58658
#        82336
#        106278
#        119762
#        141676
#        161058
#        174314
#        190722
#        207217
#
# Disc length: 3037 seconds
#
# Revision: 0
# Processed by: cddbd v1.4PL0 Copyright (c) Steve Scherf et al.
# Submitted via: ExactAudioCopy v0.95a3
#
DISCID=ae0bdb0c
DTITLE=Jay Owens - Movin' On
DYEAR=1995
DGENRE=Blues
TTITLE0=Movin' On
TTITLE1=Who Is In Control
TTITLE2=Workin' Man
TTITLE3=I'm Come
TTITLE4=Don't Make Me Wait
TTITLE5=Gonna Send For My Baby
TTITLE6=Caught In My Woman's Change
TTITLE7=I'm Addicted To You
TTITLE8=I Heard You Love
TTITLE9=The Blues Hurry Home
TTITLE10=Don't Walk Away
TTITLE11=Where There's Love
EXTD=
EXTT0=
EXTT1=
EXTT2=
EXTT3=
EXTT4=
EXTT5=
EXTT6=
EXTT7=
EXTT8=
EXTT9=
EXTT10=
EXTT11=
PLAYORDER=
